<?xml version="1.0" encoding="UTF-8"?>
<svg width="30px" height="27px" viewBox="0 0 30 27" version="1.1" xmlns="http://www.w3.org/2000/svg" xmlns:xlink="http://www.w3.org/1999/xlink">
    <!-- Generator: Sketch 54.1 (76490) - https://sketchapp.com -->
    <title>Group 8</title>
    <desc>Created with Sketch.</desc>
    <defs>
        <polygon id="path-1" points="0 0.0682848902 30 0.0682848902 30 11.475 0 11.475"></polygon>
    </defs>
    <g id="09.ABOUT-ACONCEPT" stroke="none" stroke-width="1" fill="none" fill-rule="evenodd">
        <g id="About-AConcept" transform="translate(-931.000000, -2939.000000)">
            <g id="Group" transform="translate(54.000000, 2709.000000)">
                <g id="Group-8" transform="translate(877.000000, 230.000000)">
                    <path d="M15.3952667,11.2880587 C15.3322667,11.2742213 15.2676,11.2718587 15.2039333,11.2813087 C14.5642667,11.2060462 14.0819333,10.6582837 14.0806,10.0065712 C14.0806,9.69404625 13.8306,9.44092125 13.5222667,9.44092125 C13.2136,9.44092125 12.9636,9.69404625 12.9636,10.0065712 C12.9652667,11.0946712 13.6842667,12.0481087 14.7206,12.3359962 L14.7206,12.9016462 C14.7206,13.2138337 14.9706,13.4669587 15.2789333,13.4669587 C15.5876,13.4669587 15.8376,13.2138337 15.8376,12.9016462 L15.8376,12.3700837 C17.0339333,12.1166212 17.8469333,10.9886962 17.7209333,9.75783375 C17.5949333,8.52730875 16.5709333,7.59209625 15.3489333,7.59175875 C14.6486,7.59175875 14.0806,7.01665875 14.0806,6.30757125 C14.0806,5.59848375 14.6486,5.02372125 15.3489333,5.02372125 C16.0492667,5.02372125 16.6169333,5.59848375 16.6169333,6.30757125 C16.6169333,6.62009625 16.8672667,6.87322125 17.1756,6.87322125 C17.4839333,6.87322125 17.7342667,6.62009625 17.7342667,6.30757125 C17.7326,5.16513375 16.9419333,4.17963375 15.8376,3.94372125 L15.8376,3.42903375 C15.8376,3.11684625 15.5876,2.86338375 15.2789333,2.86338375 C14.9706,2.86338375 14.7206,3.11684625 14.7206,3.42903375 L14.7206,3.97814625 C13.5679333,4.29674625 12.8262667,5.42973375 12.9849333,6.62887125 C13.1436,7.82767125 14.1539333,8.72272125 15.3489333,8.72238375 C16.0399333,8.72238375 16.6036,9.28263375 16.6162667,9.98227125 C16.6289333,10.6815712 16.0859333,11.2627462 15.3952667,11.2880587" id="Fill-1" fill="#FFFFFF"></path>
                    <path d="M15.3489,1.13103 C19.2052333,1.13103 22.3312333,4.296105 22.3312333,8.2006425 C22.3312333,12.10518 19.2052333,15.270255 15.3489,15.270255 C11.4925667,15.270255 8.36656667,12.10518 8.36656667,8.2006425 C8.3709,4.29813 11.4945667,1.1354175 15.3489,1.13103 M7.24956667,8.2006425 C7.24956667,12.7298925 10.8755667,16.4012175 15.3489,16.4012175 C19.8222333,16.4012175 23.4482333,12.7298925 23.4482333,8.2006425 C23.4482333,3.6713925 19.8222333,6.75e-05 15.3489,6.75e-05 C10.8779,0.0047925 7.25456667,3.673755 7.24956667,8.2006425" id="Fill-3" fill="#FFFFFF"></path>
                    <g id="Group-7" transform="translate(0.000000, 15.474004)">
                        <mask id="mask-2" fill="white">
                            <use xlink:href="#path-1"></use>
                        </mask>
                        <g id="Clip-6"></g>
                        <path d="M19.2098667,9.7770375 C17.9965333,10.33155 16.6412,10.4844375 15.3372,10.214775 L8.48453333,8.2670625 C7.71353333,8.0463375 6.88786667,8.1378 6.1822,8.521875 L5.5942,8.8408125 L5.75186667,3.04965 C7.61486667,1.794825 10.0045333,1.6659 11.9888667,2.712825 L12.3998667,2.9284875 C13.1182,3.3037875 13.9105333,3.5110125 14.7185333,3.5346375 L18.7578667,3.647025 C19.8925333,3.6804375 20.8562,4.4982 21.0862,5.6237625 L15.0695333,5.4556875 C14.7612,5.4469125 14.5045333,5.6932875 14.4958667,6.005475 C14.4872,6.3176625 14.7305333,6.577875 15.0388667,6.5863125 L21.6785333,6.7712625 L21.6942,6.7712625 C21.9965333,6.770925 22.2438667,6.52725 22.2522,6.2211375 C22.2588667,5.9754375 22.2408667,5.7294 22.1982,5.4874125 L26.6858667,3.340575 C26.6902,3.33855 26.6945333,3.336525 26.6988667,3.3341625 C27.3355333,3.0081375 28.1052,3.11715 28.6285333,3.607875 L19.2098667,9.7770375 Z M1.1322,9.9252 L1.36886667,1.2146625 L4.6812,1.3068 L4.44453333,10.017675 L1.1322,9.9252 Z M26.2018667,2.321325 L21.8265333,4.4145 C21.2222,3.2767875 20.0635333,2.55285 18.7882,2.5164 L14.7492,2.4040125 C14.1095333,2.38545 13.4822,2.221425 12.9135333,1.9240875 L12.5025333,1.708425 C10.3982,0.5977125 7.88986667,0.6004125 5.78786667,1.7155125 L5.8132,0.772875 C5.82186667,0.4606875 5.57886667,0.200475 5.2702,0.1920375 L0.8412,0.0685125 C0.532866667,0.0597375 0.2762,0.305775 0.267866667,0.6183 L0.0002,10.459125 C-0.00813333333,10.7713125 0.234866667,11.031525 0.5432,11.0399625 L4.9722,11.1634875 L4.98753333,11.1634875 C5.2902,11.1634875 5.53786667,10.9198125 5.5462,10.6133625 L5.55886667,10.14255 L6.70953333,9.51885 C7.1612,9.2728125 7.6892,9.214425 8.18253333,9.3555 L15.0535333,11.308275 C15.0655333,11.31165 15.0775333,11.3146875 15.0898667,11.3173875 C15.5865333,11.4226875 16.0925333,11.4753375 16.5998667,11.475 C17.6745333,11.475675 18.7365333,11.2411125 19.7132,10.787175 C19.7372,10.7760375 19.7602,10.7632125 19.7822,10.7483625 L29.7445333,4.22415 C29.9928667,4.061475 30.0732,3.7314 29.9275333,3.47085 C29.1882,2.141775 27.5475333,1.6358625 26.2018667,2.321325 L26.2018667,2.321325 Z" id="Fill-5" fill="#FFFFFF" mask="url(#mask-2)"></path>
                    </g>
                </g>
            </g>
        </g>
    </g>
</svg>