<?xml version="1.0" encoding="UTF-8"?>
<svg width="30px" height="30px" viewBox="0 0 30 30" version="1.1" xmlns="http://www.w3.org/2000/svg" xmlns:xlink="http://www.w3.org/1999/xlink">
    <!-- Generator: Sketch 54.1 (76490) - https://sketchapp.com -->
    <title>Group 3</title>
    <desc>Created with Sketch.</desc>
    <defs>
        <polygon id="path-1" points="0 3.33333333e-05 30 3.33333333e-05 30 30 0 30"></polygon>
    </defs>
    <g id="09.ABOUT-ACONCEPT" stroke="none" stroke-width="1" fill="none" fill-rule="evenodd">
        <g id="About-AConcept" transform="translate(-477.000000, -2815.000000)">
            <g id="Group" transform="translate(54.000000, 2709.000000)">
                <g id="Group-3" transform="translate(423.000000, 106.000000)">
                    <mask id="mask-2" fill="white">
                        <use xlink:href="#path-1"></use>
                    </mask>
                    <g id="Clip-2"></g>
                    <path d="M15.0006667,7.50136667 C17.0713333,7.50136667 18.947,8.3387 20.3033333,9.69603333 L21.2673333,8.73336667 C19.6643333,7.1297 17.4476667,6.13636667 15.0006667,6.13636667 C10.1053333,6.13636667 6.137,10.1060333 6.137,15.0000333 C6.137,19.8940333 10.1053333,23.8637 15.0006667,23.8637 C17.4476667,23.8637 19.6643333,22.8703667 21.2673333,21.2667 L20.3033333,20.3040333 C18.947,21.6607 17.0713333,22.4987 15.0006667,22.4987 C10.8586667,22.4987 7.5,19.1420333 7.5,15.0000333 C7.5,10.8580333 10.8586667,7.50136667 15.0006667,7.50136667 M15.0006667,28.6350333 C7.47,28.6350333 1.365,22.5320333 1.365,15.0000333 C1.365,7.46803333 7.47,1.36503333 15.0006667,1.36503333 C22.5313333,1.36503333 28.6363333,7.46803333 28.6363333,15.0000333 C28.6363333,22.5320333 22.5313333,28.6350333 15.0006667,28.6350333 M15.0006667,3.33333333e-05 C6.71666667,3.33333333e-05 0,6.7167 0,15.0000333 C0,23.2833667 6.71666667,30.0000333 15.0006667,30.0000333 C23.2846667,30.0000333 30,23.2833667 30,15.0000333 C30,6.7167 23.2846667,3.33333333e-05 15.0006667,3.33333333e-05" id="Fill-1" fill="#FFFFFF" mask="url(#mask-2)"></path>
                </g>
            </g>
        </g>
    </g>
</svg>