<?xml version="1.0" encoding="UTF-8"?>
<svg width="30px" height="19px" viewBox="0 0 30 19" version="1.1" xmlns="http://www.w3.org/2000/svg" xmlns:xlink="http://www.w3.org/1999/xlink">
    <!-- Generator: Sketch 54.1 (76490) - https://sketchapp.com -->
    <title>Group 6</title>
    <desc>Created with Sketch.</desc>
    <g id="09.ABOUT-ACONCEPT" stroke="none" stroke-width="1" fill="none" fill-rule="evenodd">
        <g id="About-AConcept" transform="translate(-477.000000, -2942.000000)" fill="#FFFFFF">
            <g id="Group" transform="translate(54.000000, 2709.000000)">
                <g id="Group-6" transform="translate(423.000000, 233.000000)">
                    <path d="M0.909,3.06532241 L29.0906667,3.06532241 L29.0906667,0.893425862 L0.909,0.893425862 L0.909,3.06532241 Z M29.5453333,3.95865 L0.454666667,3.95865 C0.203666667,3.95865 0,3.75849483 0,3.51215 L0,0.446598276 C0,0.200253448 0.203666667,9.82758621e-05 0.454666667,9.82758621e-05 L29.5453333,9.82758621e-05 C29.7963333,9.82758621e-05 30,0.200253448 30,0.446598276 L30,3.51280517 C30,3.75947759 29.7963333,3.95865 29.5453333,3.95865 L29.5453333,3.95865 Z" id="Fill-1"></path>
                    <path d="M2.05816667,17.9808793 L2.51083333,17.9808793 L6.6935,3.95855172 L4.56716667,3.95855172 L2.05816667,17.9808793 Z M2.85083333,18.8742069 L1.5165,18.8742069 C1.38283333,18.8742069 1.2545,18.8162241 1.16816667,18.7143448 C1.08183333,18.6124655 1.0455,18.4794655 1.06916667,18.3497414 L3.73816667,3.43441379 C3.7765,3.22148276 3.9645,3.06522414 4.1855,3.06522414 L7.29983333,3.06522414 C7.44283333,3.06522414 7.57816667,3.13139655 7.6635,3.24408621 C7.74916667,3.35644828 7.7765,3.50222414 7.7355,3.63718966 L3.2865,18.5535 C3.22983333,18.7438276 3.05183333,18.8742069 2.85083333,18.8742069 L2.85083333,18.8742069 Z" id="Fill-3"></path>
                    <path d="M26.7054667,17.9808793 L27.1591333,17.9808793 L24.6491333,3.95855172 L22.5238,3.95855172 L26.7054667,17.9808793 Z M27.7008,18.8742069 L26.3654667,18.8742069 C26.1638,18.8742069 25.9864667,18.7438276 25.9301333,18.5535 L21.4808,3.63784483 C21.4401333,3.5032069 21.4671333,3.35743103 21.5528,3.24474138 C21.6391333,3.13237931 21.7738,3.0662069 21.9164667,3.0662069 L25.0308,3.0662069 C25.2518,3.0662069 25.4401333,3.22246552 25.4781333,3.43506897 L28.1481333,18.3507241 C28.1708,18.4811034 28.1344667,18.614431 28.0491333,18.7153276 C27.9638,18.8162241 27.8344667,18.8742069 27.7008,18.8742069 L27.7008,18.8742069 Z" id="Fill-4"></path>
                    <path d="M22.79,6.88733621 L6.42633333,6.88733621 C6.17533333,6.88733621 5.97166667,6.68718103 5.97166667,6.44050862 C5.97166667,6.19416379 6.17533333,5.99400862 6.42633333,5.99400862 L22.79,5.99400862 C23.041,5.99400862 23.2446667,6.19416379 23.2446667,6.44050862 C23.2446667,6.68718103 23.0416667,6.88733621 22.79,6.88733621" id="Fill-5"></path>
                </g>
            </g>
        </g>
    </g>
</svg>