<?xml version="1.0" encoding="UTF-8"?>
<svg width="30px" height="20px" viewBox="0 0 30 20" version="1.1" xmlns="http://www.w3.org/2000/svg" xmlns:xlink="http://www.w3.org/1999/xlink">
    <!-- Generator: Sketch 54.1 (76490) - https://sketchapp.com -->
    <title>Group 14</title>
    <desc>Created with Sketch.</desc>
    <defs>
        <polygon id="path-1" points="0 0.0235254237 29.9999667 0.0235254237 29.9999667 19.3220339 0 19.3220339"></polygon>
    </defs>
    <g id="09.ABOUT-ACONCEPT" stroke="none" stroke-width="1" fill="none" fill-rule="evenodd">
        <g id="About-AConcept" transform="translate(-477.000000, -3071.000000)">
            <g id="Group" transform="translate(54.000000, 2709.000000)">
                <g id="Group-14" transform="translate(423.000000, 362.000000)">
                    <g id="Group-3" transform="translate(0.000000, 0.315559)">
                        <mask id="mask-2" fill="white">
                            <use xlink:href="#path-1"></use>
                        </mask>
                        <g id="Clip-2"></g>
                        <path d="M29.0606333,12.252339 L28.5283,12.252339 C28.2346333,12.252339 27.9959667,12.0096271 27.9959667,11.7109831 L27.9959667,11.1696271 L29.0606333,11.1696271 L29.0606333,12.252339 Z M25.0209667,18.3669153 C23.8986333,18.3669153 22.9853,17.4381017 22.9853,16.2967458 C22.9853,15.1553898 23.8986333,14.2269153 25.0209667,14.2269153 C26.1433,14.2269153 27.0563,15.1553898 27.0563,16.2967458 C27.0563,17.4381017 26.1433,18.3669153 25.0209667,18.3669153 L25.0209667,18.3669153 Z M8.4863,18.3669153 C7.36396667,18.3669153 6.45096667,17.4381017 6.45096667,16.2967458 C6.45096667,15.1553898 7.36396667,14.2269153 8.4863,14.2269153 C9.60896667,14.2269153 10.5219667,15.1553898 10.5219667,16.2967458 C10.5219667,17.4381017 9.60896667,18.3669153 8.4863,18.3669153 L8.4863,18.3669153 Z M21.9833,8.1760678 L21.9833,5.05505085 L26.1573,5.05505085 L26.9246333,8.1760678 L21.9833,8.1760678 Z M21.9833,3.01708475 L25.5219667,3.01708475 C26.0919667,3.01708475 26.5553,3.48861017 26.5553,4.0679322 L26.5553,4.09979661 L21.9833,4.09979661 L21.9833,3.01708475 Z M27.8999667,8.20488136 L27.1229667,5.04454237 C27.3353,4.99877966 27.4949667,4.80691525 27.4949667,4.57742373 L27.4949667,4.0679322 C27.4949667,2.96149153 26.6096333,2.06149153 25.5219667,2.06149153 L21.9833,2.06149153 L21.9833,1.01064407 C21.9833,0.466237288 21.5479667,0.0235254237 21.0126333,0.0235254237 L2.97496667,0.0235254237 C2.43963333,0.0235254237 2.0043,0.466237288 2.0043,1.01064407 L2.0043,9.67267797 C2.0043,9.93674576 2.2143,10.1506441 2.47396667,10.1506441 C2.7333,10.1506441 2.94363333,9.93674576 2.94363333,9.67267797 L2.94363333,1.01064407 C2.94363333,0.993016949 2.95763333,0.978779661 2.97496667,0.978779661 L21.0126333,0.978779661 C21.0299667,0.978779661 21.0439667,0.993016949 21.0439667,1.01064407 L21.0439667,9.67301695 C21.0439667,9.93674576 21.2539667,10.1506441 21.5136333,10.1506441 C21.7729667,10.1506441 21.9833,9.93674576 21.9833,9.67301695 L21.9833,9.13132203 L27.5246333,9.13132203 C27.5249667,9.13132203 27.5253,9.13166102 27.5256333,9.13166102 C27.5263,9.13166102 27.5266333,9.13132203 27.5269667,9.13132203 C28.2089667,9.132 28.7879667,9.58691525 28.9866333,10.2143729 L27.5259667,10.2143729 C27.2666333,10.2143729 27.0563,10.4279322 27.0563,10.692 L27.0563,11.7109831 C27.0563,12.5364068 27.7166333,13.2075932 28.5279667,13.2075932 L29.0606333,13.2075932 L29.0606333,15.3096271 L27.8323,15.3096271 C27.4286333,14.1248814 26.3213,13.271322 25.0209667,13.271322 C23.7203,13.271322 22.6126333,14.1248814 22.2093,15.3096271 L21.9833,15.3096271 L21.9833,11.7109831 C21.9833,11.4472542 21.7729667,11.2333559 21.5133,11.2333559 C21.2539667,11.2333559 21.0436333,11.4469153 21.0436333,11.7109831 L21.0436333,15.3092881 L11.2979667,15.3092881 C10.8943,14.1245424 9.78696667,13.271322 8.4863,13.271322 C7.18596667,13.271322 6.0783,14.1245424 5.67496667,15.3092881 L2.97496667,15.3092881 C2.95763333,15.3092881 2.94363333,15.2950508 2.94363333,15.2777627 L2.94363333,14.2265763 L4.9793,14.2265763 C5.23863333,14.2265763 5.44896667,14.012678 5.44896667,13.7489492 C5.44896667,13.4852203 5.23863333,13.271322 4.9793,13.271322 L0.469633333,13.271322 C0.2103,13.271322 -3.33333333e-05,13.4852203 -3.33333333e-05,13.7489492 C-3.33333333e-05,14.012678 0.2103,14.2265763 0.469633333,14.2265763 L2.0043,14.2265763 L2.0043,15.2777627 C2.0043,15.8221695 2.43963333,16.2648814 2.97496667,16.2648814 L5.5123,16.2648814 C5.5123,16.2753898 5.51163333,16.2858983 5.51163333,16.2967458 C5.51163333,17.9648814 6.84596667,19.3221695 8.4863,19.3221695 C10.1266333,19.3221695 11.4613,17.9648814 11.4613,16.2967458 C11.4613,16.2858983 11.4606333,16.2753898 11.4606333,16.2648814 L22.0466333,16.2648814 C22.0466333,16.2753898 22.0459667,16.2858983 22.0459667,16.2967458 C22.0459667,17.9648814 23.3806333,19.3221695 25.0209667,19.3221695 C26.6613,19.3221695 27.9956333,17.9648814 27.9956333,16.2967458 C27.9956333,16.2858983 27.9949667,16.2753898 27.9949667,16.2648814 L29.5303,16.2648814 C29.7896333,16.2648814 29.9999667,16.0509831 29.9999667,15.7872542 L29.9999667,10.691661 C29.9999667,9.43369492 29.0873,8.38861017 27.8999667,8.20488136 L27.8999667,8.20488136 Z" id="Fill-1" fill="#FFFFFF" mask="url(#mask-2)"></path>
                    </g>
                    <path d="M8.48643333,15.6251186 C7.9511,15.6251186 7.51576667,16.0678305 7.51576667,16.6122373 C7.51576667,17.1566441 7.9511,17.5996949 8.48643333,17.5996949 C9.02176667,17.5996949 9.4571,17.1566441 9.4571,16.6122373 C9.4571,16.0678305 9.02176667,15.6251186 8.48643333,15.6251186" id="Fill-4" fill="#FFFFFF"></path>
                    <path d="M25.0209333,15.6251186 C24.4856,15.6251186 24.0502667,16.0678305 24.0502667,16.6122373 C24.0502667,17.1566441 24.4856,17.5996949 25.0209333,17.5996949 C25.5562667,17.5996949 25.9916,17.1566441 25.9916,16.6122373 C25.9916,16.0678305 25.5562667,15.6251186 25.0209333,15.6251186" id="Fill-6" fill="#FFFFFF"></path>
                    <path d="M19.5094,13.5870169 L12.4947333,13.5870169 C12.2354,13.5870169 12.0250667,13.8009153 12.0250667,14.0646441 C12.0250667,14.3287119 12.2354,14.5422712 12.4947333,14.5422712 L19.5094,14.5422712 C19.7687333,14.5422712 19.9790667,14.3287119 19.9790667,14.0646441 C19.9790667,13.8009153 19.7687333,13.5870169 19.5094,13.5870169" id="Fill-8" fill="#FFFFFF"></path>
                    <path d="M7.48436667,11.5488475 L1.4717,11.5488475 C1.21236667,11.5488475 1.00203333,11.7627458 1.00203333,12.0264746 C1.00203333,12.2905424 1.21236667,12.5041017 1.4717,12.5041017 L7.48436667,12.5041017 C7.7437,12.5041017 7.95403333,12.2905424 7.95403333,12.0264746 C7.95403333,11.7627458 7.7437,11.5488475 7.48436667,11.5488475" id="Fill-10" fill="#FFFFFF"></path>
                    <path d="M16.3342667,5.06471186 C16.1509333,4.87827119 15.8532667,4.87827119 15.6699333,5.06471186 L11.4926,9.31284746 L9.3196,7.10301695 C9.13626667,6.91623729 8.8386,6.91623729 8.65526667,7.10301695 C8.47193333,7.28945763 8.47193333,7.59183051 8.65526667,7.77827119 L11.1606,10.3260678 C11.2522667,10.4192881 11.3726,10.4660678 11.4926,10.4660678 C11.6129333,10.4660678 11.7332667,10.4192881 11.8249333,10.3260678 L16.3342667,5.74030508 C16.5176,5.55352542 16.5176,5.25115254 16.3342667,5.06471186" id="Fill-12" fill="#FFFFFF"></path>
                </g>
            </g>
        </g>
    </g>
</svg>