<?xml version="1.0" encoding="UTF-8"?>
<svg width="30px" height="25px" viewBox="0 0 30 25" version="1.1" xmlns="http://www.w3.org/2000/svg" xmlns:xlink="http://www.w3.org/1999/xlink">
    <!-- Generator: Sketch 54.1 (76490) - https://sketchapp.com -->
    <title>Group 8</title>
    <desc>Created with Sketch.</desc>
    <defs>
        <polygon id="path-1" points="0 0.299013158 30 0.299013158 30 24.3421053 0 24.3421053"></polygon>
        <polygon id="path-3" points="0 24.3720724 30 24.3720724 30 0.328980263 0 0.328980263"></polygon>
    </defs>
    <g id="09.ABOUT-ACONCEPT" stroke="none" stroke-width="1" fill="none" fill-rule="evenodd">
        <g id="About-AConcept" transform="translate(-477.000000, -3199.000000)">
            <g id="Group" transform="translate(54.000000, 2709.000000)">
                <g id="Group-8" transform="translate(423.000000, 490.000000)">
                    <g id="Group-3" transform="translate(0.000000, 0.029967)">
                        <mask id="mask-2" fill="white">
                            <use xlink:href="#path-1"></use>
                        </mask>
                        <g id="Clip-2"></g>
                        <path d="M27.2423333,23.4748026 L25.7726667,23.4748026 L25.7726667,12.7840132 C25.7726667,12.5445395 25.576,12.3504605 25.3333333,12.3504605 L19.697,12.3504605 C19.4543333,12.3504605 19.2576667,12.5445395 19.2576667,12.7840132 L19.2576667,23.4748026 L2.75766667,23.4748026 L2.75766667,11.0297368 C3.17266667,11.1701974 3.617,11.2478289 4.07966667,11.2478289 C5.66733333,11.2478289 7.04566667,10.3481579 7.71966667,9.03861842 C8.39366667,10.3481579 9.77233333,11.2478289 11.36,11.2478289 C12.9473333,11.2478289 14.326,10.3481579 15,9.03861842 C15.674,10.3481579 17.0526667,11.2478289 18.64,11.2478289 C20.2276667,11.2478289 21.6063333,10.3481579 22.2803333,9.03861842 C22.954,10.3481579 24.3326667,11.2478289 25.9203333,11.2478289 C26.383,11.2478289 26.8273333,11.1701974 27.2423333,11.0297368 L27.2423333,23.4748026 Z M20.1363333,21.1573684 L24.8936667,21.1573684 L24.8936667,13.2178947 L20.1363333,13.2178947 L20.1363333,21.1573684 Z M20.1363333,23.4748026 L24.8936667,23.4748026 L24.8936667,22.0244737 L20.1363333,22.0244737 L20.1363333,23.4748026 Z M14.5296667,7.65539474 C14.3146667,9.19256579 12.9756667,10.3803947 11.36,10.3803947 C9.74433333,10.3803947 8.405,9.19256579 8.19,7.65539474 L14.5296667,7.65539474 Z M21.81,7.65539474 C21.595,9.19256579 20.2556667,10.3803947 18.64,10.3803947 C17.0243333,10.3803947 15.6853333,9.19256579 15.4703333,7.65539474 L21.81,7.65539474 Z M0.909333333,7.65539474 L2.318,7.65539474 C2.56066667,7.65539474 2.75733333,7.46131579 2.75733333,7.22184211 C2.75733333,6.98236842 2.56066667,6.78828947 2.318,6.78828947 L1.19666667,6.78828947 L4.308,1.41493421 C4.397,1.26164474 4.56333333,1.16625 4.742,1.16625 L25.2576667,1.16625 C25.4366667,1.16625 25.603,1.26164474 25.692,1.41493421 L28.8033333,6.78828947 L27.6816667,6.78828947 C27.439,6.78828947 27.2423333,6.98236842 27.2423333,7.22184211 C27.2423333,7.46131579 27.439,7.65539474 27.6816667,7.65539474 L29.0906667,7.65539474 C28.876,9.19256579 27.536,10.3803947 25.9203333,10.3803947 C24.3046667,10.3803947 22.9656667,9.19256579 22.7506667,7.65539474 L25.803,7.65539474 C26.046,7.65539474 26.2426667,7.46131579 26.2426667,7.22184211 C26.2426667,6.98236842 26.046,6.78828947 25.803,6.78828947 L4.197,6.78828947 C3.95433333,6.78828947 3.75766667,6.98236842 3.75766667,7.22184211 C3.75766667,7.46131579 3.95433333,7.65539474 4.197,7.65539474 L7.24933333,7.65539474 C7.03433333,9.19256579 5.69533333,10.3803947 4.07966667,10.3803947 C2.46366667,10.3803947 1.124,9.19256579 0.909333333,7.65539474 L0.909333333,7.65539474 Z M28.621,23.4748026 L28.1213333,23.4748026 L28.1213333,10.6090132 C29.25,9.89223684 30,8.64223684 30,7.22184211 C30,7.14651316 29.98,7.07217105 29.942,7.00671053 L26.455,0.984671053 C26.21,0.561644737 25.7513333,0.298815789 25.2576667,0.298815789 L4.742,0.298815789 C4.24866667,0.298815789 3.79,0.561644737 3.545,0.984671053 L0.058,7.00671053 C0.02,7.07217105 0,7.14651316 0,7.22184211 C0,8.64223684 0.75,9.89223684 1.87866667,10.6090132 L1.87866667,23.4748026 L1.37866667,23.4748026 C1.136,23.4748026 0.939333333,23.6688816 0.939333333,23.9083553 C0.939333333,24.1478289 1.136,24.3422368 1.37866667,24.3422368 L28.621,24.3422368 C28.864,24.3422368 29.0606667,24.1478289 29.0606667,23.9083553 C29.0606667,23.6688816 28.864,23.4748026 28.621,23.4748026 L28.621,23.4748026 Z" id="Fill-1" fill="#FFFFFF" mask="url(#mask-2)"></path>
                    </g>
                    <mask id="mask-4" fill="white">
                        <use xlink:href="#path-3"></use>
                    </mask>
                    <g id="Clip-5"></g>
                    <path d="M5.106,21.1872039 L16.909,21.1872039 L16.909,13.2477303 L5.106,13.2477303 L5.106,21.1872039 Z M17.3483333,12.3802961 L4.66666667,12.3802961 C4.424,12.3802961 4.22733333,12.5747039 4.22733333,12.8141776 L4.22733333,21.6207566 C4.22733333,21.8602303 4.424,22.0546382 4.66666667,22.0546382 L17.3483333,22.0546382 C17.5913333,22.0546382 17.788,21.8602303 17.788,21.6207566 L17.788,12.8141776 C17.788,12.574375 17.5913333,12.3802961 17.3483333,12.3802961 L17.3483333,12.3802961 Z" id="Fill-4" fill="#FFFFFF" mask="url(#mask-4)"></path>
                    <polygon id="Fill-6" fill="#FFFFFF" mask="url(#mask-4)" points="2.266 7.68555921 4.53966667 7.68555921 4.53966667 6.82009868 2.266 6.82009868"></polygon>
                    <polygon id="Fill-7" fill="#FFFFFF" mask="url(#mask-4)" points="25.8986667 7.68555921 28.1723333 7.68555921 28.1723333 6.82009868 25.8986667 6.82009868"></polygon>
                </g>
            </g>
        </g>
    </g>
</svg>