<?xml version="1.0" encoding="utf-8"?>
<!-- Generator: Adobe Illustrator 19.2.1, SVG Export Plug-In . SVG Version: 6.00 Build 0)  -->
<svg version="1.1" id="Capa_1" xmlns="http://www.w3.org/2000/svg" xmlns:xlink="http://www.w3.org/1999/xlink" x="0px" y="0px"
	 viewBox="0 0 33 33" style="enable-background:new 0 0 33 33;" xml:space="preserve">
<style type="text/css">
	.st0{fill:#FFFFFF;}
</style>
<g>
	<path class="st0" d="M28.2,22.3H4.8c-0.3,0-0.5-0.2-0.5-0.5V15c0-1.1,0.9-2.1,2.1-2.1h20.3c1.1,0,2.1,0.9,2.1,2.1v6.8
		C28.7,22.1,28.5,22.3,28.2,22.3z M5.3,21.3h22.4V15c0-0.6-0.5-1.1-1.1-1.1H6.4c-0.6,0-1.1,0.5-1.1,1.1L5.3,21.3L5.3,21.3z"/>
	<path class="st0" d="M26.6,30.5H6.4c-1.1,0-2.1-0.9-2.1-2.1v-6.8c0-0.3,0.2-0.5,0.5-0.5h23.4c0.3,0,0.5,0.2,0.5,0.5v6.8
		C28.7,29.6,27.8,30.5,26.6,30.5z M5.3,22.2v6.3c0,0.6,0.5,1.1,1.1,1.1h20.3c0.6,0,1.1-0.5,1.1-1.1v-6.3H5.3z"/>
	<g>
		<path class="st0" d="M8,33c-0.1,0-0.1,0-0.2,0c-0.3-0.1-0.4-0.4-0.3-0.7l1-2.5c0.1-0.3,0.4-0.4,0.7-0.3c0.3,0.1,0.4,0.4,0.3,0.7
			l-1,2.5C8.4,32.9,8.2,33,8,33z"/>
		<path class="st0" d="M25,33c-0.2,0-0.4-0.1-0.5-0.3l-1-2.5c-0.1-0.3,0-0.5,0.3-0.7c0.3-0.1,0.5,0,0.7,0.3l1,2.5
			c0.1,0.3,0,0.5-0.3,0.7C25.1,33,25,33,25,33z"/>
	</g>
	<path class="st0" d="M17.7,17.1h-2.3c-0.3,0-0.5-0.2-0.5-0.5s0.2-0.5,0.5-0.5h2.3c0.3,0,0.5,0.2,0.5,0.5S17.9,17.1,17.7,17.1z"/>
	<path class="st0" d="M17.7,25.3h-2.3c-0.3,0-0.5-0.2-0.5-0.5s0.2-0.5,0.5-0.5h2.3c0.3,0,0.5,0.2,0.5,0.5S17.9,25.3,17.7,25.3z"/>
	<path class="st0" d="M17.2,14h-6.6c-0.3,0-0.5-0.2-0.5-0.5v-2c0-0.3,0.2-0.5,0.5-0.5h6.6c0.3,0,0.5,0.2,0.5,0.5v2
		C17.8,13.7,17.5,14,17.2,14z M11.1,13h5.7v-1h-5.6C11.1,11.9,11.1,13,11.1,13z"/>
	<path class="st0" d="M18.3,6.4H9.5c-0.2,0-0.3-0.1-0.4-0.2C9,6,9,5.9,9.1,5.7l1.7-5.4C10.8,0.1,11,0,11.2,0h5.4
		c0.2,0,0.4,0.1,0.5,0.3l1.7,5.4c0,0.2,0,0.3-0.1,0.4C18.6,6.3,18.5,6.4,18.3,6.4z M10.2,5.4h7.4L16.2,1h-4.6L10.2,5.4z"/>
	<path class="st0" d="M13.9,11.9c-0.3,0-0.5-0.2-0.5-0.5V5.9c0-0.3,0.2-0.5,0.5-0.5s0.5,0.2,0.5,0.5v5.6
		C14.4,11.7,14.2,11.9,13.9,11.9z"/>
	<path class="st0" d="M16.5,8.1c-0.3,0-0.5-0.2-0.5-0.5V5.9c0-0.3,0.2-0.5,0.5-0.5S17,5.6,17,5.9v1.7C17,7.9,16.8,8.1,16.5,8.1z"/>
</g>
</svg>
