<?xml version="1.0" encoding="UTF-8"?>
<svg width="30px" height="30px" viewBox="0 0 30 30" version="1.1" xmlns="http://www.w3.org/2000/svg" xmlns:xlink="http://www.w3.org/1999/xlink">
    <!-- Generator: Sketch 54.1 (76490) - https://sketchapp.com -->
    <title>Group 15</title>
    <desc>Created with Sketch.</desc>
    <defs>
        <polygon id="path-1" points="0.166789212 0.118516484 2.15283333 0.118516484 2.15283333 7.58241758 0.166789212 7.58241758"></polygon>
        <polygon id="path-3" points="0 29.6703297 30 29.6703297 30 0 0 0"></polygon>
    </defs>
    <g id="09.ABOUT-ACONCEPT" stroke="none" stroke-width="1" fill="none" fill-rule="evenodd">
        <g id="About-AConcept" transform="translate(-931.000000, -3065.000000)">
            <g id="Group" transform="translate(54.000000, 2709.000000)">
                <g id="Group-15" transform="translate(877.000000, 356.000000)">
                    <path d="M10,0 C5.858,0 2.5,3.3210989 2.5,7.41758242 L2.5,12.8571429 C2.50233333,14.7679121 4.068,16.3163736 6,16.3186813 L6.5,16.3186813 L6.5,15.3296703 L6,15.3296703 C4.62,15.328022 3.50166667,14.221978 3.5,12.8571429 L3.5,7.41758242 C3.5,3.86703297 6.41,0.989010989 10,0.989010989 C13.59,0.989010989 16.5,3.86703297 16.5,7.41758242 L16.5,12.8571429 C16.4983333,14.221978 15.38,15.328022 14,15.3296703 L13.5,15.3296703 L13.5,16.3186813 L14,16.3186813 C15.932,16.3163736 17.4976667,14.7679121 17.5,12.8571429 L17.5,7.41758242 C17.5,3.3210989 14.142,0 10,0" id="Fill-1" fill="#FFFFFF"></path>
                    <g id="Group-5" transform="translate(2.333333, 22.087912)">
                        <mask id="mask-2" fill="white">
                            <use xlink:href="#path-1"></use>
                        </mask>
                        <g id="Clip-4"></g>
                        <path d="M1.78716667,1.21763736 L2.15283333,0.648296703 L1.30816667,0.118516484 L0.942833333,0.688186813 C-0.162833333,2.41104396 -0.0808333333,4.6293956 1.14916667,6.26752747 L1.14916667,7.58258242 L2.14916667,7.58258242 L2.14916667,6.09906593 C2.14916667,5.98664835 2.1105,5.87752747 2.03983333,5.78983516 C0.976833333,4.47543956 0.875166667,2.63851648 1.78716667,1.21763736" id="Fill-3" fill="#FFFFFF" mask="url(#mask-2)"></path>
                    </g>
                    <path d="M29,7.41758242 C29,8.23681319 28.3283333,8.9010989 27.5,8.9010989 L25,8.9010989 C24.8673333,8.9010989 24.7403333,8.95318681 24.6463333,9.04582418 L23,10.6743956 L23,9.3956044 C23,9.12263736 22.776,8.9010989 22.5,8.9010989 L21,8.9010989 C20.1716667,8.9010989 19.5,8.23681319 19.5,7.41758242 L19.5,2.47252747 C19.5,1.6532967 20.1716667,0.989010989 21,0.989010989 L27.5,0.989010989 C28.3283333,0.989010989 29,1.6532967 29,2.47252747 L29,7.41758242 Z M27.5,0 L21,0 C19.62,0.00164835165 18.5016667,1.10769231 18.5,2.47252747 L18.5,7.41758242 C18.5016667,8.78241758 19.62,9.88846154 21,9.89010989 L22,9.89010989 L22,11.8681319 C22,12.0682418 22.1216667,12.2485714 22.3086667,12.3250549 C22.3693333,12.3501099 22.4343333,12.362967 22.5,12.3626374 C22.6326667,12.3626374 22.7596667,12.3105495 22.8536667,12.2179121 L25.207,9.89010989 L27.5,9.89010989 C28.88,9.88846154 29.9983333,8.78241758 30,7.41758242 L30,2.47252747 C29.9983333,1.10769231 28.88,0.00164835165 27.5,0 L27.5,0 Z" id="Fill-6" fill="#FFFFFF"></path>
                    <mask id="mask-4" fill="white">
                        <use xlink:href="#path-3"></use>
                    </mask>
                    <g id="Clip-9"></g>
                    <polygon id="Fill-8" fill="#FFFFFF" mask="url(#mask-4)" points="21 3.46153846 24.5 3.46153846 24.5 2.47252747 21 2.47252747"></polygon>
                    <polygon id="Fill-10" fill="#FFFFFF" mask="url(#mask-4)" points="25.5 3.46153846 27.5 3.46153846 27.5 2.47252747 25.5 2.47252747"></polygon>
                    <polygon id="Fill-11" fill="#FFFFFF" mask="url(#mask-4)" points="21 5.43956044 27.5 5.43956044 27.5 4.45054945 21 4.45054945"></polygon>
                    <polygon id="Fill-12" fill="#FFFFFF" mask="url(#mask-4)" points="21 7.41758242 24.5 7.41758242 24.5 6.42857143 21 6.42857143"></polygon>
                    <path d="M16.724,22.7759341 L16.3583333,22.2062637 L15.514,22.7363736 L15.8793333,23.306044 C16.7913333,24.7269231 16.69,26.5635165 15.627,27.8779121 C15.556,27.9656044 15.5173333,28.0743956 15.5173333,28.1868132 L15.5173333,29.6703297 L16.5173333,29.6703297 L16.5173333,28.3552747 C17.7473333,26.7171429 17.8293333,24.4987912 16.724,22.7759341" id="Fill-13" fill="#FFFFFF" mask="url(#mask-4)"></path>
                    <path d="M26.5,19.7802198 L22.55,19.7802198 C22.789,18.6296703 23.8123333,17.8035165 25,17.8021978 L28.95,17.8021978 C28.711,18.9527473 27.6876667,19.7789011 26.5,19.7802198 L26.5,19.7802198 Z M12.392,20.2747253 L7.75,20.2747253 L6.31866667,18.2967033 L6.5,18.2967033 C7.60466667,18.2967033 8.5,17.4112088 8.5,16.3186813 L8.5,15.5963736 C9.47633333,15.9 10.5236667,15.9 11.5,15.5963736 L11.5,16.3186813 C11.5,17.4112088 12.3953333,18.2967033 13.5,18.2967033 L13.9,18.2967033 L12.392,20.2747253 Z M10.0103333,23.396044 L8.46733333,21.2637363 L11.6356667,21.2637363 L10.0103333,23.396044 Z M6,10.8791209 L6,9.0632967 L13.7203333,5.47021978 C13.9053333,5.93274725 14,6.4256044 14,6.92307692 L14,10.8791209 C14,13.0638462 12.209,14.8351648 10,14.8351648 C7.791,14.8351648 6,13.0638462 6,10.8791209 L6,10.8791209 Z M29.5,16.8131868 L25,16.8131868 C23.124,16.8154945 21.5833333,18.2798901 21.507,20.1336264 L20,22.8171429 L20,20.7692308 C19.9976667,18.8584615 18.432,17.31 16.5,17.3076923 L14.6726667,17.3076923 L14.659,17.2971429 L14.65,17.3076923 L13.5,17.3076923 C12.9476667,17.3076923 12.5,16.8649451 12.5,16.3186813 L12.5,15.1549451 C14.045,14.2727473 14.9976667,12.6435165 15,10.8791209 L15,6.92307692 C14.9993333,6.10384615 14.793,5.29747253 14.4,4.57615385 C14.274,4.3467033 13.9893333,4.25340659 13.75,4.36351648 L5.287,8.30175824 C5.11166667,8.38351648 5,8.55758242 5,8.74945055 L5,10.8791209 C5.00233333,12.6435165 5.955,14.2727473 7.5,15.1549451 L7.5,16.3186813 C7.5,16.8649451 7.05233333,17.3076923 6.5,17.3076923 L3.5,17.3076923 C1.568,17.31 0.00233333333,18.8584615 0,20.7692308 L0,29.6703297 L1,29.6703297 L1,20.7692308 C1.00166667,19.4043956 2.12,18.2983516 3.5,18.2967033 L5.091,18.2967033 L9.59366667,24.5185714 C9.686,24.6464835 9.83466667,24.7232967 9.99333333,24.7252747 L10,24.7252747 C10.1573333,24.7252747 10.3056667,24.6520879 10.4,24.5274725 L15.15,18.2967033 L16.5,18.2967033 C17.88,18.2983516 18.9983333,19.4043956 19,20.7692308 L19,24.7252747 C19.0003333,24.9982418 19.2243333,25.2194505 19.5003333,25.2194505 C19.6816667,25.2191209 19.849,25.1218681 19.937,24.9649451 L22.294,20.7692308 L25.1606667,20.7692308 L20.2856667,29.6703297 L21.423,29.6703297 L26.3,20.7692308 L26.5,20.7692308 C28.432,20.7669231 29.9976667,19.2184615 30,17.3076923 C30,17.0347253 29.776,16.8131868 29.5,16.8131868 L29.5,16.8131868 Z" id="Fill-14" fill="#FFFFFF" mask="url(#mask-4)"></path>
                </g>
            </g>
        </g>
    </g>
</svg>