<?xml version="1.0" encoding="UTF-8"?>
<svg width="30px" height="27px" viewBox="0 0 30 27" version="1.1" xmlns="http://www.w3.org/2000/svg" xmlns:xlink="http://www.w3.org/1999/xlink">
    <!-- Generator: Sketch 54.1 (76490) - https://sketchapp.com -->
    <title>Group 15</title>
    <desc>Created with Sketch.</desc>
    <defs>
        <polygon id="path-1" points="6.66666667e-05 0.00637875 30 0.00637875 30 12.6511538 6.66666667e-05 12.6511538"></polygon>
        <polygon id="path-3" points="0.252366667 0.1029375 21.1793667 0.1029375 21.1793667 9.0269775 0.252366667 9.0269775"></polygon>
    </defs>
    <g id="09.ABOUT-ACONCEPT" stroke="none" stroke-width="1" fill="none" fill-rule="evenodd">
        <g id="About-AConcept" transform="translate(-931.000000, -2817.000000)">
            <g id="Group" transform="translate(54.000000, 2709.000000)">
                <g id="Group-15" transform="translate(877.000000, 108.000000)">
                    <g id="Group-3" transform="translate(0.000000, 8.334596)">
                        <mask id="mask-2" fill="white">
                            <use xlink:href="#path-1"></use>
                        </mask>
                        <g id="Clip-2"></g>
                        <path d="M21.9934,12.6511538 L8.0084,12.6511538 C7.7574,12.6511538 7.55373333,12.4449413 7.55373333,12.1908038 L7.55373333,4.71484125 C7.55373333,2.62537875 5.87473333,0.92707875 3.81206667,0.92707875 C2.21106667,0.92707875 0.909066667,2.24434125 0.909066667,3.86501625 C0.909066667,5.11140375 1.91006667,6.12390375 3.14006667,6.12390375 C4.07373333,6.12390375 4.83373333,5.35440375 4.83373333,4.40906625 C4.83373333,3.70301625 4.2664,3.12892875 3.56906667,3.12892875 C3.3184,3.12892875 3.11473333,2.92271625 3.11473333,2.66857875 C3.11473333,2.41444125 3.3184,2.20822875 3.56906667,2.20822875 C4.7674,2.20822875 5.74306667,3.19507875 5.74306667,4.40906625 C5.74306667,5.86267875 4.57573333,7.04460375 3.14006667,7.04460375 C1.40906667,7.04460375 6.66666667e-05,5.61765375 6.66666667e-05,3.86501625 C6.66666667e-05,1.73707875 1.71006667,0.00637875 3.81106667,0.00637875 C6.37573333,0.00637875 8.46206667,2.11912875 8.46206667,4.71484125 L8.46206667,11.7307913 L21.5387333,11.7307913 L21.5387333,4.71484125 C21.5387333,2.11912875 23.6254,0.00637875 26.1890667,0.00637875 C28.2907333,0.00637875 30.0000667,1.73775375 30.0000667,3.86501625 C30.0000667,5.61765375 28.5907333,7.04460375 26.8600667,7.04460375 C25.4254,7.04460375 24.2580667,5.86267875 24.2580667,4.40906625 C24.2580667,3.19609125 25.2327333,2.20822875 26.4307333,2.20822875 C26.6817333,2.20822875 26.8854,2.41444125 26.8854,2.66857875 C26.8854,2.92271625 26.6817333,3.12892875 26.4307333,3.12892875 C25.7334,3.12892875 25.1670667,3.70301625 25.1670667,4.40906625 C25.1670667,5.35440375 25.9264,6.12390375 26.8600667,6.12390375 C28.0907333,6.12390375 29.0907333,5.11072875 29.0907333,3.86501625 C29.0907333,2.24434125 27.7890667,0.92707875 26.1890667,0.92707875 C24.1254,0.92707875 22.4480667,2.62605375 22.4480667,4.71484125 L22.4480667,12.1908038 C22.4480667,12.4449413 22.2450667,12.6511538 21.9934,12.6511538" id="Fill-1" fill="#FFFFFF" mask="url(#mask-2)"></path>
                    </g>
                    <path d="M25.5380333,25.4031525 L4.56203333,25.4031525 C3.52736667,25.4031525 2.68636667,24.5506275 2.68636667,23.50404 L2.68636667,14.9197275 C2.68636667,14.66559 2.89003333,14.4593775 3.14103333,14.4593775 C3.39203333,14.4593775 3.5957,14.66559 3.5957,14.9197275 L3.5957,23.50404 C3.5957,24.0437025 4.03003333,24.48279 4.56203333,24.48279 L25.5380333,24.48279 C26.0707,24.48279 26.5043667,24.04269 26.5043667,23.50404 L26.5043667,14.9197275 C26.5043667,14.66559 26.7080333,14.4593775 26.9590333,14.4593775 C27.2100333,14.4593775 27.4137,14.66559 27.4137,14.9197275 L27.4137,23.50404 C27.4137,24.5506275 26.5727,25.4031525 25.5380333,25.4031525" id="Fill-4" fill="#FFFFFF"></path>
                    <path d="M21.9934,17.088435 L8.0084,17.088435 C7.7574,17.088435 7.55373333,16.8822225 7.55373333,16.628085 C7.55373333,16.374285 7.7574,16.1680725 8.0084,16.1680725 L21.9944,16.1680725 C22.2450667,16.1680725 22.4487333,16.374285 22.4487333,16.628085 C22.4487333,16.8822225 22.2450667,17.088435 21.9934,17.088435" id="Fill-6" fill="#FFFFFF"></path>
                    <path d="M8.00843333,26.8970963 C7.75743333,26.8970963 7.55376667,26.6908838 7.55376667,26.4367463 L7.55376667,25.3074713 C7.55376667,25.0533338 7.75743333,24.8471213 8.00843333,24.8471213 C8.25943333,24.8471213 8.4631,25.0533338 8.4631,25.3074713 L8.4631,26.4367463 C8.4631,26.6908838 8.25943333,26.8970963 8.00843333,26.8970963" id="Fill-8" fill="#FFFFFF"></path>
                    <path d="M21.9934,26.8970963 C21.7424,26.8970963 21.5387333,26.6908838 21.5387333,26.4367463 L21.5387333,25.3074713 C21.5387333,25.0533338 21.7424,24.8471213 21.9934,24.8471213 C22.2444,24.8471213 22.4480667,25.0533338 22.4480667,25.3074713 L22.4480667,26.4367463 C22.4480667,26.6908838 22.2450667,26.8970963 21.9934,26.8970963" id="Fill-10" fill="#FFFFFF"></path>
                    <g id="Group-14" transform="translate(4.333333, 0.234596)">
                        <mask id="mask-4" fill="white">
                            <use xlink:href="#path-3"></use>
                        </mask>
                        <g id="Clip-13"></g>
                        <path d="M20.7247,9.0269775 C20.4737,9.0269775 20.2700333,8.820765 20.2700333,8.5666275 L20.2700333,5.5669275 C20.2700333,3.0613275 18.2573667,1.0235025 15.7827,1.0235025 L5.6487,1.0235025 C3.17403333,1.0235025 1.16136667,3.0613275 1.16136667,5.5669275 L1.16136667,8.5666275 C1.16136667,8.820765 0.9577,9.0269775 0.7067,9.0269775 C0.456033333,9.0269775 0.252366667,8.820765 0.252366667,8.5666275 L0.252366667,5.5669275 C0.252366667,2.5550775 2.67336667,0.1028025 5.6487,0.1028025 L15.7827,0.1028025 C18.7573667,0.1028025 21.1793667,2.554065 21.1793667,5.5669275 L21.1793667,8.5666275 C21.1793667,8.820765 20.9763667,9.0269775 20.7247,9.0269775" id="Fill-12" fill="#FFFFFF" mask="url(#mask-4)"></path>
                    </g>
                </g>
            </g>
        </g>
    </g>
</svg>