<?xml version="1.0" encoding="utf-8"?>
<!-- Generator: Adobe Illustrator 19.2.1, SVG Export Plug-In . SVG Version: 6.00 Build 0)  -->
<svg version="1.1" id="Capa_1" xmlns="http://www.w3.org/2000/svg" xmlns:xlink="http://www.w3.org/1999/xlink" x="0px" y="0px"
	 viewBox="0 0 512 512" style="enable-background:new 0 0 512 512;" xml:space="preserve">
<style type="text/css">
	.st0{fill:#FFFFFF;}
</style>
<g>
	<g>
		<g>
			<path class="st0" d="M505.9,123.6c-4.4-4.8-10.5-7.5-17-7.5h-6.8c-17.9,0-32.6,13.5-34.2,31.3l-7.4,84.3
				c-0.7,7.5-6.8,13.1-14.3,13.1h-64c-20.5,0-37.2,16.7-37.2,37.2v3.7c0,12.4,10.1,22.5,22.5,22.5h13.7l-13.5,44.1c0,0,0,0.1,0,0.1
				l-10.3,33.7c-1.2,4,1,8.2,5,9.4c0.7,0.2,1.5,0.3,2.2,0.3c3.2,0,6.2-2.1,7.2-5.3l8.7-28.5h102.9l8.7,28.5c1,3.2,4,5.3,7.2,5.3
				c0.7,0,1.5-0.1,2.2-0.3c4-1.2,6.2-5.4,5-9.4l-24.5-80.1c4.3-1.2,8.5-3,12.4-5.2c3.6-2.1,4.8-6.6,2.8-10.2s-6.6-4.8-10.2-2.8
				c-6,3.5-12.9,5.3-19.9,5.3h-75.4c0,0,0,0-0.1,0h-23.8c-4.1,0-7.5-3.4-7.5-7.5V282c0-12.2,10-22.2,22.2-22.2h64
				c15.3,0,27.9-11.5,29.2-26.8l7.4-84.3c0.9-10.1,9.2-17.6,19.3-17.6h6.8c2.3,0,4.4,0.9,5.9,2.6c1.5,1.7,2.3,3.9,2.1,6.1
				l-10.2,116.7c-0.3,2.9-0.8,5.7-1.7,8.5c-1.2,4,1,8.2,4.9,9.4c4,1.2,8.2-1,9.4-4.9c1.2-3.8,1.9-7.7,2.3-11.6l10.2-116.7
				C512.5,134.8,510.3,128.3,505.9,123.6z M376.9,308.2h69.9l11.9,38.9H365L376.9,308.2z"/>
			<path class="st0" d="M149.8,244.8h-64c-7.5,0-13.6-5.6-14.3-13.1l-7.4-84.3c-1.6-17.9-16.3-31.3-34.2-31.3H23
				c-6.4,0-12.6,2.7-17,7.5c-4.4,4.8-6.5,11.2-6,17.6l10.2,116.7c1.2,13.8,7.5,26.5,17.7,35.8c6.4,5.9,14,10.1,22.2,12.4l-24.5,80.1
				c-1.2,4,1,8.2,5,9.4c0.7,0.2,1.5,0.3,2.2,0.3c3.2,0,6.2-2.1,7.2-5.3l8.7-28.5h102.9l8.7,28.5c1,3.2,4,5.3,7.2,5.3
				c0.7,0,1.5-0.1,2.2-0.3c4-1.2,6.2-5.4,5-9.4l-10.3-33.7c0,0,0-0.1,0-0.1l-13.5-44.1h13.7c12.4,0,22.5-10.1,22.5-22.5V282
				C187,261.5,170.3,244.8,149.8,244.8z M53.4,347.1l11.9-38.9h69.9l11.9,38.9H53.4z M172,285.7c0,4.1-3.4,7.5-7.5,7.5h-23.8
				c0,0-0.1,0-0.1,0H65.3c-1.6,0-3.2-0.1-4.7-0.3c0,0,0,0,0,0c-18.8-2.2-33.6-17.1-35.2-36.4L15,139.9c-0.2-2.3,0.5-4.5,2.1-6.1
				c1.5-1.7,3.6-2.6,5.9-2.6h6.8c10.1,0,18.4,7.6,19.3,17.6l7.4,84.3v0c1.3,15.3,13.9,26.8,29.2,26.8h64c12.2,0,22.2,10,22.2,22.2
				L172,285.7L172,285.7z"/>
			<path class="st0" d="M312.9,371.1c-3.1-11.9-13.8-20.2-26.1-20.2h-4.6V214.4h92.4c5.3,0,10.3-2.4,13.7-6.5
				c3.4-4.1,4.7-9.5,3.6-14.7c-3.2-15.7-17.2-27.1-33.2-27.1H202.7c-4.1,0-7.5,3.4-7.5,7.5s3.4,7.5,7.5,7.5h155.9
				c8.9,0,16.7,6.3,18.5,15.1c0.2,1.1-0.2,1.8-0.5,2.2c-0.3,0.4-1,1-2,1H137.5c-1.1,0-1.7-0.6-2-1c-0.3-0.4-0.8-1.1-0.5-2.2
				c1.8-8.7,9.6-15.1,18.5-15.1h14.1c4.1,0,7.5-3.4,7.5-7.5s-3.4-7.5-7.5-7.5h-14.1c-16,0-30,11.4-33.2,27.1
				c-1.1,5.2,0.2,10.6,3.6,14.7c3.4,4.1,8.3,6.5,13.7,6.5h92.4v136.5h-4.6c-12.3,0-23,8.3-26.1,20.2l-1.8,6.8
				c-1.1,4.3-0.2,8.9,2.5,12.4c2.7,3.5,6.9,5.6,11.4,5.6h89.6c4.5,0,8.6-2,11.4-5.6c2.7-3.5,3.7-8.1,2.5-12.4L312.9,371.1z
				 M244.8,214.4L244.8,214.4h22.3v136.5h-22.3V214.4z M212,380.9l1.6-6c1.4-5.3,6.2-9,11.6-9h61.6c5.5,0,10.2,3.7,11.6,9l1.6,6H212
				z"/>
		</g>
	</g>
</g>
</svg>
